<svg xmlns="http://www.w3.org/2000/svg" viewBox="0 0 64 64" id="quality"><path fill="#a06cd5" d="M32 15.3A16.7 16.7 0 1 0 48.7 32 16.717 16.717 0 0 0 32 15.3Zm11.33 14.78-4.62 4.39 1 6.29a1.491 1.491 0 0 1-.62 1.46 1.427 1.427 0 0 1-.86.28 1.537 1.537 0 0 1-.72-.18l-5.6-3.04-5.67 2.9a1.506 1.506 0 0 1-2.16-1.61l1.16-6.26-4.51-4.51a1.5 1.5 0 0 1 .86-2.55l6.32-.83 2.89-5.68a1.588 1.588 0 0 1 1.35-.82 1.525 1.525 0 0 1 1.34.85l2.74 5.75 6.3 1a1.5 1.5 0 0 1 1.2 1.03 1.519 1.519 0 0 1-.4 1.53Zm11.6 4.96c1.01-1.05 2.05-2.14 2.05-3.04s-1.04-1.99-2.05-3.04a9.866 9.866 0 0 1-2.56-3.58 10.215 10.215 0 0 1-.05-4.54c.19-1.41.38-2.86-.11-3.53s-1.95-.94-3.35-1.2a10.342 10.342 0 0 1-4.28-1.43 10.257 10.257 0 0 1-2.65-3.6c-.68-1.27-1.38-2.58-2.21-2.85-.75-.24-2.06.38-3.32.99a10.561 10.561 0 0 1-4.4 1.37 10.561 10.561 0 0 1-4.4-1.37c-1.26-.61-2.57-1.24-3.32-.99-.83.27-1.53 1.58-2.21 2.85a10.257 10.257 0 0 1-2.65 3.6 10.342 10.342 0 0 1-4.28 1.43c-1.4.26-2.86.52-3.35 1.2s-.3 2.12-.11 3.53a10.215 10.215 0 0 1-.05 4.54 9.866 9.866 0 0 1-2.56 3.58C8.06 30.01 7.02 31.1 7.02 32s1.04 1.99 2.05 3.04a9.866 9.866 0 0 1 2.56 3.58 10.215 10.215 0 0 1 .05 4.54c-.19 1.41-.38 2.86.11 3.53s1.95.94 3.35 1.2a10.342 10.342 0 0 1 4.28 1.43 10.257 10.257 0 0 1 2.65 3.6c.68 1.27 1.38 2.58 2.21 2.85.75.24 2.06-.38 3.32-.99a10.561 10.561 0 0 1 4.4-1.37 10.561 10.561 0 0 1 4.4 1.37c1.26.61 2.57 1.24 3.32.99.83-.27 1.53-1.58 2.21-2.85a10.257 10.257 0 0 1 2.65-3.6 10.342 10.342 0 0 1 4.28-1.43c1.4-.26 2.86-.52 3.35-1.2s.3-2.12.11-3.53a10.215 10.215 0 0 1 .05-4.54 9.866 9.866 0 0 1 2.56-3.58ZM32 51.7A19.7 19.7 0 1 1 51.7 32 19.726 19.726 0 0 1 32 51.7Zm2.99-22.34 4.07.64-2.99 2.84a1.528 1.528 0 0 0-.45 1.33l.65 4.06-3.62-1.96a1.537 1.537 0 0 0-.72-.18 1.507 1.507 0 0 0-.68.16l-3.67 1.87.75-4.05a1.5 1.5 0 0 0-.42-1.33L25 29.83l4.08-.54a1.509 1.509 0 0 0 1.14-.81l1.87-3.67 1.78 3.72a1.506 1.506 0 0 0 1.12.83Z" data-name="Quality" class="color222222 svgShape"></path></svg>